<svg xmlns="http://www.w3.org/2000/svg" viewBox="0 0 512 512"><circle cx="256" cy="256" r="256" fill="#hsl(60, 100%, 50%)"/><path fill="#000"><path d="M184.284 471H110.141C105.268 471 100 466.736 100 462V315c0-4.736 5.268-9 10.141-9h74.143c2.858 0 5.617 1.56 7.057 3.913l43.571 74.184 43.571-74.184c1.44-2.353 4.199-3.913 7.057-3.913h74.143c4.873 0 10.141 4.264 10.141 9v147c0 4.736-5.268 9-10.141 9h-74.143c-2.859 0-5.617-1.56-7.057-3.913l-43.571-74.184-43.571 74.184c-1.44 2.353-4.199 3.913-7.057 3.913z"/></path></svg>