<?xml version="1.0" standalone="no"?>
<!DOCTYPE svg PUBLIC "-//W3C//DTD SVG 20010904//EN"
 "http://www.w3.org/TR/2001/REC-SVG-20010904/DTD/svg10.dtd">
<svg version="1.0" xmlns="http://www.w3.org/2000/svg"
 width="300.000000pt" height="300.000000pt" viewBox="0 0 300.000000 300.000000"
 preserveAspectRatio="xMidYMid meet">
<metadata>
Created by potrace 1.10, written by Peter Selinger 2001-2011
</metadata>
<g transform="translate(0.000000,300.000000) scale(0.100000,-0.100000)"
fill="#000000" stroke="none">
<path d="M2369 2229 c-30 -24 -110 -90 -179 -149 -206 -176 -292 -242 -301
-233 -4 4 3 71 17 148 29 168 29 169 7 163 -10 -3 -120 -72 -245 -154 -334
-219 -438 -284 -451 -284 -7 0 -57 85 -112 190 -55 104 -103 189 -107 190 -4
0 -9 -15 -12 -32 -9 -58 -25 -179 -47 -338 -32 -239 -12 -208 -209 -335 -207
-134 -224 -146 -213 -155 10 -9 97 -39 218 -75 50 -15 95 -33 101 -40 10 -13
-5 -169 -35 -355 -13 -79 -13 -80 -3 -80 5 0 71 79 148 175 76 96 145 177 153
180 8 3 42 -3 75 -14 287 -93 420 -132 437 -129 19 3 15 13 -42 123 -34 66
-88 168 -120 228 -32 59 -61 118 -65 132 -5 20 6 39 58 102 34 43 72 90 83
104 18 24 86 111 176 222 17 20 37 37 46 37 16 0 16 -53 -4 -362 -7 -116 2
-124 57 -50 19 25 85 111 145 189 61 78 144 186 184 240 41 54 126 165 189
246 63 82 112 150 109 153 -2 3 -29 -14 -58 -37z"/>
</g>
</svg>
