<?xml version="1.0" encoding="UTF-8"?>
<svg version="1.1" xmlns="http://www.w3.org/2000/svg" width="2000" height="2148">
<path d="M0 0 C4.83815944 1.53941437 8.15789767 4.31364826 12 7.5 C13.3403254 8.59215347 14.6814856 9.68328317 16.0234375 10.7734375 C16.69213867 11.31838867 17.36083984 11.86333984 18.04980469 12.42480469 C20.87279535 14.7049669 23.74214572 16.92129666 26.625 19.125 C27.15287109 19.52912109 27.68074219 19.93324219 28.22460938 20.34960938 C29.28514961 21.16091616 30.34602013 21.97179137 31.40722656 22.78222656 C34.10971683 24.84844689 36.80440984 26.92479139 39.5 29 C40.58329704 29.83338051 41.66663035 30.66671388 42.75 31.5 C75.25 56.5 107.75 81.5 140.25 106.5 C140.78584717 106.91217773 141.32169434 107.32435547 141.8737793 107.74902344 C142.96123001 108.5855491 144.04863207 109.42213803 145.13598633 110.25878906 C147.78093787 112.29379288 150.42681112 114.32756533 153.07421875 116.359375 C159.31787502 121.15375095 165.54038067 125.97411088 171.75 130.8125 C179.8175508 137.09694941 187.93317278 143.31645938 196.06298828 149.52001953 C201.05284325 153.33253539 206.02470368 157.1685218 211 161 C213.16644651 162.66695292 215.33322497 164.33347413 217.5 166 C218.58333938 166.83332547 219.66667272 167.6666588 220.75 168.5 C221.28625 168.9125 221.8225 169.325 222.375 169.75 C241.33333333 184.33333333 260.29166667 198.91666667 279.25 213.5 C279.78584717 213.91217773 280.32169434 214.32435547 280.8737793 214.74902344 C281.96123001 215.5855491 283.04863207 216.42213803 284.13598633 217.25878906 C286.78093787 219.29379288 289.42681112 221.32756533 292.07421875 223.359375 C299.95408646 229.41016426 307.80149758 235.5020033 315.640625 241.60546875 C316.35412109 242.15380371 317.06761719 242.70213867 317.80273438 243.26708984 C319.34311143 244.48193388 320.85284447 245.73617506 322.33789062 247.01806641 C323.10810547 247.6682373 323.87832031 248.3184082 324.671875 248.98828125 C325.70199707 249.88800659 325.70199707 249.88800659 326.75292969 250.8059082 C329.91891788 252.4883124 331.58613007 251.94951602 335 251 C337.09000781 250.12375449 339.14661149 249.16541665 341.171875 248.1484375 C342.38823042 247.54582868 343.60462211 246.94329308 344.82104492 246.34082031 C345.45948334 246.02101196 346.09792175 245.70120361 346.75570679 245.3717041 C373.2157581 232.14754955 400.33194172 220.45394606 428 210 C429.14726563 209.56268555 430.29453125 209.12537109 431.4765625 208.67480469 C464.66887404 196.06209429 498.43325223 185.33180951 532.83636475 176.55279541 C534.9434251 176.01445454 537.04920237 175.47133353 539.15478516 174.92724609 C598.82809836 159.56252394 660.47186645 150.25605855 722 147 C723.05645218 146.93804947 723.05645218 146.93804947 724.13424683 146.87484741 C742.10256903 145.8301202 760.07084947 145.79861684 778.0625 145.8125 C778.8379932 145.81276688 779.6134864 145.81303375 780.4124794 145.81330872 C803.24612332 145.8231649 826.02026056 145.93961283 848.79022217 147.81964111 C851.15142308 148.01235893 853.51332209 148.19402705 855.87548828 148.37451172 C897.57925779 151.6001722 939.05254315 157.45479442 980 166 C980.77998352 166.16179749 981.55996704 166.32359497 982.36358643 166.49029541 C1037.16573849 177.88661886 1091.10477338 193.98682597 1143 215 C1143.6634845 215.26834656 1144.32696899 215.53669312 1145.01055908 215.81317139 C1163.58671253 223.34180057 1181.88749107 231.41130223 1200 240 C1201.18368164 240.5583252 1202.36736328 241.11665039 1203.58691406 241.69189453 C1218.71882992 248.83574598 1233.64077357 256.26129462 1248.23828125 264.45507812 C1251.15064353 266.08427088 1254.07434032 267.69169552 1257 269.296875 C1285.96103315 285.25299697 1313.94487709 302.99310795 1341 322 C1341.56912109 322.39960938 1342.13824219 322.79921875 1342.72460938 323.2109375 C1368.24763718 341.18572808 1392.65625408 360.38269683 1416.40087891 380.63916016 C1418.05849996 382.04978302 1419.72229828 383.45287789 1421.38671875 384.85546875 C1429.45636907 391.68136478 1437.21927526 398.78593434 1444.90063477 406.04418945 C1446.41736168 407.45720251 1447.94837029 408.85493847 1449.48803711 410.24291992 C1458.23656985 418.14265242 1466.57879214 426.42633334 1474.90161133 434.77124023 C1477.32194526 437.1969663 1479.7476222 439.61725798 1482.17382812 442.03710938 C1483.73730012 443.60124175 1485.30046212 445.16568406 1486.86328125 446.73046875 C1487.57696365 447.44212692 1488.29064606 448.1537851 1489.0259552 448.88700867 C1492.98835006 452.86773127 1496.78206523 456.9413992 1500.4412384 461.203125 C1503.00008683 464.15285816 1505.69581208 466.97252799 1508.375 469.8125 C1513.10196376 474.85910944 1517.57509143 480.03334148 1521.8984375 485.43359375 C1523.98001427 487.97559363 1526.1503838 490.39529335 1528.375 492.8125 C1532.43626167 497.26929324 1536.15413522 501.92962968 1539.84545898 506.69116211 C1542.79644135 510.4915842 1545.82513535 514.2040058 1548.9375 517.875 C1554.34852726 524.3256262 1559.37645166 531.03540272 1564.37744141 537.80664062 C1566.05093199 540.06884939 1567.73388098 542.32379683 1569.41796875 544.578125 C1577.57264352 555.52534079 1585.41996291 566.64761103 1593 578 C1593.64308105 578.96260742 1594.28616211 579.92521484 1594.94873047 580.91699219 C1611.40888967 605.64059883 1626.754043 630.93225108 1641 657 C1641.60021973 658.0921582 1642.20043945 659.18431641 1642.81884766 660.30957031 C1681.03764258 729.99379961 1710.36379425 804.98731368 1756.25 1032.5 C1756.3272229 1033.28279327 1756.4044458 1034.06558655 1756.48400879 1034.87210083 C1759.35550017 1064.43163992 1760.38540862 1094.00695822 1760.31805801 1123.69227982 C1760.31238724 1126.23812168 1760.30958558 1128.78395679 1760.30697632 1131.32980347 C1760.265885 1158.97166966 1759.58786263 1186.46346647 1757 1214 C1756.91278687 1214.93537598 1756.82557373 1215.87075195 1756.73571777 1216.83447266 C1750.07985099 1287.4518145 1736.53226346 1357.32754337 1714.6895752 1424.8583374 C1713.9952199 1427.0148459 1713.3102462 1429.17412728 1712.62792969 1431.33447266 C1684.34274498 1520.753485 1641.57711265 1607.0391395 1569 1710 C1568.50048828 1710.6811084 1568.00097656 1711.3622168 1567.48632812 1712.06396484 C1560.40026551 1721.69557336 1553.00234834 1731.03220631 1545.41308594 1740.27099609 C1543.54379799 1742.55819327 1541.70837399 1744.87146225 1539.875 1747.1875 C1536.37860866 1751.57455102 1532.76506956 1755.85480293 1529.12524414 1760.12280273 C1526.29087525 1763.45154395 1523.5338462 1766.82754362 1520.8125 1770.25 C1515.47763545 1776.81524773 1509.60774805 1782.87306141 1503.78125 1789 C1500.95972554 1791.97031579 1498.20394844 1794.9841587 1495.5 1798.0625 C1489.59623313 1804.69851703 1483.20574429 1810.8785849 1476.89355469 1817.12231445 C1472.90252763 1821.07989428 1468.93983986 1825.06547852 1464.98046875 1829.0546875 C1463.54165542 1830.50088274 1462.10235519 1831.94659145 1460.6628418 1833.39208984 C1459.68374233 1834.376212 1458.70554305 1835.36123062 1457.72827148 1836.34716797 C1452.55849307 1841.56137076 1447.36285497 1846.68959548 1441.78100586 1851.46630859 C1439.00734708 1853.85481092 1436.35658313 1856.37112776 1433.6875 1858.875 C1428.81414451 1863.41348524 1423.79696023 1867.69348797 1418.6015625 1871.86328125 C1416.05013271 1873.95882494 1413.61673227 1876.13963155 1411.1875 1878.375 C1406.21929677 1882.89653512 1400.99196423 1887.01152206 1395.6875 1891.125 C1392.63925817 1893.49012633 1389.63449264 1895.90408792 1386.63818359 1898.33447266 C1378.07157825 1905.26978005 1369.24481826 1911.82028326 1360.33056641 1918.30029297 C1358.19532401 1919.85754811 1356.07074649 1921.42804862 1353.94921875 1923.00390625 C1332.13753069 1939.10615754 1309.28306123 1954.11954331 1286 1968 C1284.58895996 1968.84135498 1284.58895996 1968.84135498 1283.14941406 1969.69970703 C1203.67261167 2016.89962026 1118.56823889 2053.23689337 867 2105 C866.12239014 2105.08463501 865.24478027 2105.16927002 864.34057617 2105.25646973 C808.44304559 2110.60444691 750.28525631 2110.54211873 694.38891602 2105.22460938 C691.99117939 2104.99917067 689.5926036 2104.78686095 687.19335938 2104.578125 C596.60680587 2096.63029281 506.88717987 2075.2197788 279.14428711 1972.21459961 C276.93106683 1970.8701247 276.93106683 1970.8701247 274 1970 C274 1969.34 274 1968.68 274 1968 C273.35546875 1967.77441406 272.7109375 1967.54882812 272.046875 1967.31640625 C267.90124524 1965.5252816 264.11709836 1963.26158026 260.25 1960.9375 C259.38310547 1960.41655762 258.51621094 1959.89561523 257.62304688 1959.35888672 C246.11825433 1952.3523461 235.06682963 1944.67187621 224 1937 C223.07558105 1936.3620752 222.15116211 1935.72415039 221.19873047 1935.06689453 C209.93826949 1927.29303945 198.87730257 1919.30086554 188 1911 C186.89465452 1910.16259768 185.78919028 1909.32535209 184.68359375 1908.48828125 C177.23217468 1902.82365889 169.96175168 1896.94994363 162.71484375 1891.02734375 C159.78902204 1888.63710118 156.83988076 1886.27922027 153.875 1883.9375 C144.42010643 1876.38947572 135.34264358 1868.39151216 126.4296875 1860.21484375 C124.39484585 1858.35993183 122.33678753 1856.54571202 120.25 1854.75 C109.26650309 1845.17866697 98.84246716 1834.99836922 88.61474609 1824.63061523 C84.74712382 1820.72498337 80.84652036 1816.85249696 76.9453125 1812.98046875 C75.49911726 1811.54165542 74.05340855 1810.10235519 72.60791016 1808.6628418 C71.623788 1807.68374233 70.63876938 1806.70554305 69.65283203 1805.72827148 C63.87859005 1800.00322535 58.23973149 1794.22395133 53 1788 C52.17459717 1787.0267981 52.17459717 1787.0267981 51.33251953 1786.03393555 C50.40413464 1784.93744612 49.47794658 1783.83909015 48.5546875 1782.73828125 C47.30967776 1781.34624775 46.00022195 1780.01196431 44.671875 1778.69921875 C41.75013964 1775.74758259 39.058625 1772.66627862 36.375 1769.5 C35.85429932 1768.88833984 35.33359863 1768.27667969 34.79711914 1767.64648438 C33.72043714 1766.38098796 32.6446733 1765.11470982 31.56982422 1763.84765625 C30.10480858 1762.1233579 28.63363029 1760.40457048 27.16015625 1758.6875 C21.08010355 1751.58307291 15.23581642 1744.32104201 9.50390625 1736.93359375 C7.90487797 1734.87770025 6.29679961 1732.82911162 4.6875 1730.78125 C-7.76090709 1714.90961861 -19.73675184 1698.73482608 -31 1682 C-31.66547852 1681.01467285 -32.33095703 1680.0293457 -33.01660156 1679.01416016 C-53.30755452 1648.93638653 -71.99765467 1618.06458901 -89 1586 C-89.55655273 1584.95537598 -90.11310547 1583.91075195 -90.68652344 1582.83447266 C-128.79560931 1511.12721667 -157.73875523 1434.00607473 -199 1214 C-199.12695251 1212.64914307 -199.12695251 1212.64914307 -199.25646973 1211.27099609 C-204.48165768 1154.79274828 -204.27061074 1096.46248148 -199 1040 C-198.91514343 1039.07640686 -198.83028687 1038.15281372 -198.74285889 1037.20123291 C-192.20719041 966.60781911 -178.50634051 896.55780802 -156.6706543 829.07843018 C-156.0009744 827.00301977 -155.33839642 824.92546497 -154.67773438 822.84716797 C-141.92595717 782.80560094 -125.88305903 744.00951256 -108 706 C-107.52481934 704.98115723 -107.04963867 703.96231445 -106.56005859 702.91259766 C-94.84984063 677.82501235 -81.79219035 653.49789548 -67.61865234 629.71826172 C-66.06582663 627.11054505 -64.52575305 624.49569642 -62.98828125 621.87890625 C-32.50952112 570.24603078 -32.50952112 570.24603078 -14.57421875 549.33789062 C-13.87232422 548.48227539 -13.87232422 548.48227539 -13.15625 547.609375 C-12.50366211 546.85865723 -12.50366211 546.85865723 -11.83789062 546.09277344 C-9.64842733 540.62421884 -12.60701184 533.07638963 -14.06640625 527.5625 C-14.26475571 526.79695801 -14.46310516 526.03141602 -14.66746521 525.24267578 C-15.29444729 522.8271991 -15.92834449 520.41360213 -16.5625 518 C-16.99199732 516.35038034 -17.42103808 514.70064174 -17.84960938 513.05078125 C-18.8944706 509.03246089 -19.94553226 505.01580966 -21 501 C-17.96821387 501.64311907 -15.50193016 502.65561242 -12.76953125 504.109375 C-11.96580078 504.53476562 -11.16207031 504.96015625 -10.33398438 505.3984375 C-9.50189453 505.84445312 -8.66980469 506.29046875 -7.8125 506.75 C-6.99974609 507.18054688 -6.18699219 507.61109375 -5.34960938 508.0546875 C0.13726692 510.97054539 5.57854358 513.96444088 11 517 C11.27150879 516.41460449 11.54301758 515.82920898 11.82275391 515.22607422 C12.98602808 513.02641973 14.24983638 511.29421523 15.8359375 509.3828125 C16.39982178 508.70017334 16.96370605 508.01753418 17.54467773 507.31420898 C18.14868408 506.59177002 18.75269043 505.86933105 19.375 505.125 C19.99769775 504.37484619 20.62039551 503.62469238 21.26196289 502.85180664 C29.36662904 493.11405696 37.61973491 483.50156817 46 474 C43.0774094 470.87013348 40.0614206 468.58546244 36.4375 466.3125 C35.01244141 465.40951172 35.01244141 465.40951172 33.55859375 464.48828125 C31.01243224 462.89100282 31.01243224 462.89100282 28 462 C28 461.34 28 460.68 28 460 C27.01 460 26.02 460 25 460 C25 459.34 25 458.68 25 458 C24.01 458 23.02 458 22 458 C22 457.34 22 456.68 22 456 C21.32066406 455.74992187 20.64132813 455.49984375 19.94140625 455.2421875 C16.46282082 453.77314345 13.21180175 451.99305339 9.9375 450.125 C9.32583984 449.78597656 8.71417969 449.44695312 8.08398438 449.09765625 C4.53467155 447.07934431 1.79906641 444.95053104 -1 442 C-4.6904239 439.31398013 -8.45876764 437.22016232 -12.6875 435.5 C-16 434 -16 434 -18.1875 431.75 C-21.04538875 428.95561989 -23.71738057 427.30435396 -27.17578125 425.328125 C-28.26415283 424.70325195 -29.35252441 424.07837891 -30.47387695 423.43457031 C-31.30749756 422.96116211 -32.14111816 422.48775391 -33 422 C-32.86914773 420.48641623 -32.86914773 420.48641623 -32.73565197 418.94225502 C-29.26637749 378.64963378 -26.24743295 338.32285881 -23.19839694 297.99680617 C-22.43286926 287.87382509 -21.66477614 277.75103909 -20.89645299 267.62826987 C-19.52656516 249.57957934 -18.15784341 231.53080063 -16.7902832 213.48193359 C-16.70907031 212.41010529 -16.62785741 211.33827699 -16.54418352 210.23396905 C-15.63423427 198.22432104 -14.72458172 186.21465058 -13.81524658 174.20495605 C-13.48303571 169.81746393 -13.15082199 165.42997202 -12.81860352 161.04248047 C-12.73658394 159.95926924 -12.65456436 158.87605802 -12.57005934 157.76002221 C-11.20342642 139.71202799 -9.83470447 121.66419288 -8.4643299 103.61648238 C-7.62218126 92.52427374 -6.7818343 81.43193149 -5.94383015 70.33940895 C-5.37191251 62.77076663 -4.79806948 55.20227189 -4.22269443 47.63389163 C-3.89103951 43.27049379 -3.56028145 38.90703268 -3.231884 34.54338837 C-2.93145597 30.55159855 -2.62854493 26.56000526 -2.32364818 22.56855436 C-2.2137841 21.12447253 -2.10483951 19.6803204 -1.99690316 18.23609321 C-1.85015661 16.27434025 -1.69974868 14.31286221 -1.54916096 12.35140038 C-1.46665161 11.26180153 -1.38414227 10.17220269 -1.29913265 9.0495857 C-1.00003697 6.00037693 -0.53940732 3.01517178 0 0 Z " fill="#FF4DF9" transform="translate(221,20)"/>
<path d="M0 0 C4.83815944 1.53941437 8.15789767 4.31364826 12 7.5 C13.3403254 8.59215347 14.6814856 9.68328317 16.0234375 10.7734375 C16.69213867 11.31838867 17.36083984 11.86333984 18.04980469 12.42480469 C20.87279535 14.7049669 23.74214572 16.92129666 26.625 19.125 C27.15287109 19.52912109 27.68074219 19.93324219 28.22460938 20.34960938 C29.28514961 21.16091616 30.34602013 21.97179137 31.40722656 22.78222656 C34.10971683 24.84844689 36.80440984 26.92479139 39.5 29 C40.58329704 29.83338051 41.66663035 30.66671388 42.75 31.5 C75.25 56.5 107.75 81.5 140.25 106.5 C140.78584717 106.91217773 141.32169434 107.32435547 141.8737793 107.74902344 C142.96123001 108.5855491 144.04863207 109.42213803 145.13598633 110.25878906 C147.78093787 112.29379288 150.42681112 114.32756533 153.07421875 116.359375 C159.31787502 121.15375095 165.54038067 125.97411088 171.75 130.8125 C179.8175508 137.09694941 187.93317278 143.31645938 196.06298828 149.52001953 C201.05284325 153.33253539 206.02470368 157.1685218 211 161 C213.16644651 162.66695292 215.33322497 164.33347413 217.5 166 C218.58333938 166.83332547 219.66667272 167.6666588 220.75 168.5 C221.28625 168.9125 221.8225 169.325 222.375 169.75 C241.33333333 184.33333333 260.29166667 198.91666667 279.25 213.5 C279.78584717 213.91217773 280.32169434 214.32435547 280.8737793 214.74902344 C281.96123001 215.5855491 283.04863207 216.42213803 284.13598633 217.25878906 C286.78093787 219.29379288 289.42681112 221.32756533 292.07421875 223.359375 C293.10160156 224.14828125 294.12898438 224.9371875 295.1875 225.75 C295.70940918 226.1507373 296.23131836 226.55147461 296.76904297 226.96435547 C300.00093808 229.45005879 303.2209499 231.95039462 306.43359375 234.4609375 C307.99732231 235.6823858 309.56112509 236.90373908 311.125 238.125 C311.89505371 238.72658936 312.66510742 239.32817871 313.45849609 239.94799805 C318.4668989 243.84670012 323.53122621 247.62322214 328.73828125 251.25390625 C331 253 331 253 333.41796875 255.421875 C336.12468773 258.12449909 338.95018847 260.38108003 342 262.6875 C343.15632528 263.56630721 344.3125731 264.44521634 345.46875 265.32421875 C346.05527344 265.76813965 346.64179687 266.21206055 347.24609375 266.66943359 C350.00856558 268.7651284 352.75372767 270.88315127 355.5 273 C356.58324247 273.83345145 357.66657602 274.66678453 358.75 275.5 C369.58333333 283.83333333 380.41666667 292.16666667 391.25 300.5 C391.78584717 300.91217773 392.32169434 301.32435547 392.8737793 301.74902344 C393.96123001 302.5855491 395.04863207 303.42213803 396.13598633 304.25878906 C398.78093787 306.29379288 401.42681112 308.32756533 404.07421875 310.359375 C410.31787502 315.15375095 416.54038067 319.97411088 422.75 324.8125 C430.8175508 331.09694941 438.93317278 337.31645938 447.06298828 343.52001953 C452.05284325 347.33253539 457.02470368 351.1685218 462 355 C464.16644651 356.66695292 466.33322497 358.33347413 468.5 360 C469.58333938 360.83332547 470.66667272 361.6666588 471.75 362.5 C472.28625 362.9125 472.8225 363.325 473.375 363.75 C492.33333333 378.33333333 511.29166667 392.91666667 530.25 407.5 C530.78584717 407.91217773 531.32169434 408.32435547 531.8737793 408.74902344 C532.96123001 409.5855491 534.04863207 410.42213803 535.13598633 411.25878906 C537.78093787 413.29379288 540.42681112 415.32756533 543.07421875 417.359375 C549.31787502 422.15375095 555.54038067 426.97411088 561.75 431.8125 C569.8175508 438.09694941 577.93317278 444.31645938 586.06298828 450.52001953 C591.05284325 454.33253539 596.02470368 458.1685218 601 462 C603.16644651 463.66695292 605.33322497 465.33347413 607.5 467 C608.58333938 467.83332547 609.66667272 468.6666588 610.75 469.5 C611.28625 469.9125 611.8225 470.325 612.375 470.75 C631.33333333 485.33333333 650.29166667 499.91666667 669.25 514.5 C669.78584717 514.91217773 670.32169434 515.32435547 670.8737793 515.74902344 C671.96123001 516.5855491 673.04863207 517.42213803 674.13598633 518.25878906 C676.78093787 520.29379288 679.42681112 522.32756533 682.07421875 524.359375 C688.31787502 529.15375095 694.54038067 533.97411088 700.75 538.8125 C708.8175508 545.09694941 716.93317278 551.31645938 725.06298828 557.52001953 C730.05284325 561.33253539 735.02470368 565.1685218 740 569 C742.16644651 570.66695292 744.33322497 572.33347413 746.5 574 C747.58333938 574.83332547 748.66667272 575.6666588 749.75 576.5 C750.554375 577.11875 750.554375 577.11875 751.375 577.75 C757.33333333 582.33333333 763.29166667 586.91666667 769.25 591.5 C769.78584717 591.91217773 770.32169434 592.32435547 770.8737793 592.74902344 C771.96123001 593.5855491 773.04863207 594.42213803 774.13598633 595.25878906 C776.78093787 597.29379288 779.42681112 599.32756533 782.07421875 601.359375 C786.81351561 604.99858413 791.54770044 608.64335922 796.2578125 612.3203125 C804.19366507 618.51479852 812.16316491 624.65044949 820.23486328 630.66699219 C825.18974895 634.36924517 830.06795342 638.15977162 834.9206543 641.99462891 C840.37213131 646.30264055 845.87659632 650.53926705 851.39111328 654.76611328 C854.09649812 656.84092587 856.79804166 658.92072853 859.5 661 C860.58331518 661.83335693 861.66664851 662.66669027 862.75 663.5 C873.58333333 671.83333333 884.41666667 680.16666667 895.25 688.5 C895.78584717 688.91217773 896.32169434 689.32435547 896.8737793 689.74902344 C897.96123001 690.5855491 899.04863207 691.42213803 900.13598633 692.25878906 C902.78093787 694.29379288 905.42681112 696.32756533 908.07421875 698.359375 C913.56999628 702.57947017 919.05105258 706.81690817 924.51293945 711.08081055 C933.03667094 717.7312939 941.60484106 724.31305016 950.30322266 730.73388672 C951.80541952 731.85480656 953.28537792 733.00539461 954.76171875 734.16015625 C964.65812019 741.66612256 975.69266976 744.24971605 988 743 C1007.801198 739.78308613 1025.46868969 724.79781845 1040 712 C1040.80566406 711.29488281 1041.61132812 710.58976563 1042.44140625 709.86328125 C1052.93054889 700.54551494 1063.18988766 690.90636343 1073.0625 680.9375 C1077.22208238 676.74668952 1081.42386133 672.73338754 1086 669 C1086.83402344 668.31550781 1087.66804688 667.63101563 1088.52734375 666.92578125 C1105.82880257 653.32669222 1126.27344707 645.06031779 1146.46875 636.73828125 C1160.87465381 631.62317194 1160.87465381 631.62317194 1172 622 C1171.76906495 616.54354532 1170.02156536 612.61377775 1167.203125 608.0546875 C1166.81817871 607.41142014 1166.43323242 606.76815277 1166.03662109 606.10539246 C1164.78563902 604.02158611 1163.51820241 601.9483625 1162.25 599.875 C1161.37506199 598.42560052 1160.50104537 596.97564446 1159.62792969 595.52514648 C1154.3967575 586.85416725 1149.09715361 578.22376822 1143.73364258 569.6340332 C1138.72209335 561.60257074 1133.8652553 553.48003902 1129.02246094 545.34594727 C1126.12143317 540.48386548 1123.20903681 535.66550738 1120 531 C1120.33 530.34 1120.66 529.68 1121 529 C1122.06992188 529.680625 1123.13984375 530.36125 1124.2421875 531.0625 C1133.78271141 537.11673621 1143.36903364 543.09063451 1153 549 C1161.2838399 554.08302064 1169.53468195 559.21051349 1177.73828125 564.421875 C1185.56068029 569.37917048 1193.45789456 574.21346066 1201.3515625 579.05615234 C1208.87879695 583.67948473 1216.36356742 588.36456178 1223.8215332 593.09863281 C1229.16360009 596.48556137 1234.54254515 599.8012861 1240 603 C1239.5875 602.113125 1239.175 601.22625 1238.75 600.3125 C1237.3990369 597.16192443 1236.38371585 594.00610084 1235.4296875 590.71484375 C1232.18662019 580.07482607 1228.21645385 569.6849217 1224.375 559.25 C1223.52518088 556.93394469 1222.67565812 554.61778062 1221.82641602 552.30151367 C1219.64368808 546.35068054 1217.45701035 540.40130731 1215.26922607 534.45233154 C1213.3035903 529.10574553 1211.34132555 523.75792347 1209.37890625 518.41015625 C1206.04184363 509.31798318 1202.70074751 500.22729829 1199.35818481 491.137146 C1196.71320407 483.94295466 1194.07258344 476.74717213 1191.43359375 469.55078125 C1190.29153598 466.43736681 1189.14935871 463.32399626 1188.00708008 460.21066284 C1187.25694618 458.16605457 1186.50694453 456.12139778 1185.75708008 454.07669067 C1181.65196657 442.88565403 1177.52471157 431.70346653 1173.34765625 420.5390625 C1172.97346558 419.53799469 1172.5992749 418.53692688 1172.21374512 417.50552368 C1170.4345431 412.74669949 1168.65136079 407.98944034 1166.86083984 403.23486328 C1166.22870608 401.54725111 1165.59669996 399.85959111 1164.96484375 398.171875 C1164.67722672 397.41282867 1164.38960968 396.65378235 1164.09327698 395.87173462 C1162.75035585 392.27368652 1161.60100218 388.79904246 1161 385 C1167.0331193 389.22318351 1172.30591204 394.00664778 1177.65063477 399.04541016 C1182.01794783 403.14234636 1186.54647389 406.94908703 1191.22265625 410.69140625 C1195.00817282 413.83801707 1198.57505162 417.19687666 1202.16650391 420.56103516 C1205.49172323 423.65794703 1208.88729071 426.59628992 1212.4375 429.4375 C1217.45841948 433.46446744 1222.12421817 437.79214703 1226.80615234 442.20068359 C1231.12226878 446.24268587 1235.60503631 449.99595417 1240.22265625 453.69140625 C1243.42442799 456.35279458 1246.46234918 459.15462246 1249.5 462 C1253.39576281 465.64888449 1257.33334284 469.15698438 1261.5 472.5 C1266.26108478 476.31994011 1270.71273025 480.38938819 1275.1640625 484.55859375 C1278.51116869 487.67568554 1281.93014141 490.63581113 1285.5 493.5 C1290.26108478 497.31994011 1294.71273025 501.38938819 1299.1640625 505.55859375 C1302.51116869 508.67568554 1305.93014141 511.63581113 1309.5 514.5 C1314.26188842 518.3205849 1318.71435594 522.39067803 1323.16625977 526.56079102 C1326.491548 529.65780084 1329.88719939 532.59621684 1333.4375 535.4375 C1338.45841948 539.46446744 1343.12421817 543.79214703 1347.80615234 548.20068359 C1352.12226878 552.24268587 1356.60503631 555.99595417 1361.22265625 559.69140625 C1364.42442799 562.35279458 1367.46234918 565.15462246 1370.5 568 C1374.39576281 571.64888449 1378.33334284 575.15698438 1382.5 578.5 C1387.26349585 582.32187458 1391.71760596 586.39325907 1396.1706543 590.56518555 C1399.4523834 593.62209222 1402.80115826 596.517114 1406.3125 599.3125 C1423.24485531 612.94763239 1437.0258376 628.66333034 1450 646 C1450.56912109 646.75490723 1451.13824219 647.50981445 1451.72460938 648.28759766 C1520.01940407 738.94218531 1520.01940407 738.94218531 1513.72265625 783.98388672 C1511.38155705 801.5464342 1513.53730355 814.46662722 1524.40087891 828.85546875 C1526.5535532 831.66228582 1528.71964946 834.45860495 1530.88598633 837.25488281 C1553.83760141 867.08185719 1573.64514031 901.35290124 1583 938 C1583.18401367 938.71526855 1583.36802734 939.43053711 1583.55761719 940.16748047 C1586.94092671 953.49110689 1589.32485716 966.48876873 1589.23046875 980.28125 C1589.23037308 981.40683823 1589.2302774 982.53242645 1589.23017883 983.69212341 C1589.22650049 987.2948633 1589.20767351 990.89731798 1589.1875 994.5 C1589.18065309 996.97468985 1589.17414375 999.44938065 1589.16796875 1001.92407227 C1589.10799032 1018.62972037 1588.85603218 1035.31420244 1588 1052 C1583.28585129 1048.98033792 1578.99516932 1045.63229393 1574.6875 1042.0625 C1569.06429312 1037.44350726 1563.36806664 1032.94981024 1557.5625 1028.5625 C1550.11937083 1022.92928158 1542.91289716 1017.04220443 1535.73046875 1011.08203125 C1531.55954289 1007.62399587 1527.29648988 1004.2998814 1523 1001 C1515.5805717 995.22411594 1508.21957859 989.38579737 1500.9375 983.4375 C1495.14630272 978.70748069 1489.2748784 974.11533218 1483.328125 969.58203125 C1479.57295545 966.69352598 1475.91414272 963.69004287 1472.25 960.6875 C1466.0886587 955.64087749 1459.8118232 950.7757639 1453.4597168 945.97241211 C1447.28843522 941.27933297 1441.30270018 936.37779878 1435.35571289 931.40454102 C1434.6827417 930.84307373 1434.00977051 930.28160645 1433.31640625 929.703125 C1432.72287354 929.20458008 1432.12934082 928.70603516 1431.51782227 928.19238281 C1429.99467141 926.91364088 1429.99467141 926.91364088 1428 926 C1428.73863281 926.84820313 1429.47726562 927.69640625 1430.23828125 928.5703125 C1435.97285562 935.18932846 1441.54893418 941.88814089 1446.91650391 948.80810547 C1450.52370962 953.44074929 1454.27889028 957.92856958 1458.09057617 962.39355469 C1461.40184711 966.27691763 1464.61557498 970.22340954 1467.78515625 974.22265625 C1470.6009978 977.75363216 1473.45802216 981.25024119 1476.3125 984.75 C1480.47264665 989.85367271 1484.57972789 994.99238065 1488.625 1000.1875 C1492.5886014 1005.27363229 1496.68990285 1010.21634116 1500.88208008 1015.11499023 C1504.59741255 1019.47595294 1508.13954649 1023.95479162 1511.65527344 1028.47729492 C1516.01874687 1034.07060083 1520.53478455 1039.53276021 1525.05834961 1044.99682617 C1529.13346874 1049.92650684 1533.13640622 1054.90179919 1537 1060 C1536.34 1060.33 1535.68 1060.66 1535 1061 C1532.70703125 1059.95874023 1532.70703125 1059.95874023 1529.8125 1058.30859375 C1528.73524658 1057.70088135 1527.65799316 1057.09316895 1526.5480957 1056.46704102 C1525.97129059 1056.13697052 1525.39448547 1055.80690002 1524.80020142 1055.46682739 C1522.35369862 1054.06795484 1519.89642912 1052.68853402 1517.43952942 1051.30802917 C1516.1664275 1050.59256296 1514.89379947 1049.87625291 1513.62162781 1049.15913391 C1478.61031988 1029.42972198 1442.79999902 1010.75034892 1404.625 997.9375 C1403.60081467 997.59179459 1403.60081467 997.59179459 1402.55593872 997.23910522 C1383.85015847 990.96987632 1359.70976387 983.64246143 1340.4375 991.4375 C1306.31760435 1008.67915141 1288.63956378 1047.98689771 1271.11021423 1079.89208984 C1247.43308524 1122.98471492 1221.85350453 1164.61065153 1191 1203 C1190.4858252 1203.6403418 1189.97165039 1204.28068359 1189.44189453 1204.94042969 C1180.4905598 1216.06708127 1171.39429907 1227.06775165 1161.94140625 1237.7734375 C1160.3302277 1239.62126802 1158.73774909 1241.48170312 1157.15234375 1243.3515625 C1147.69420121 1254.49474234 1147.69420121 1254.49474234 1142.5625 1259.44140625 C1140.84027899 1261.15932171 1139.26865727 1262.96415643 1137.6875 1264.8125 C1134.20339671 1268.86032338 1130.45011544 1272.58804549 1126.625 1276.3125 C1124.61399034 1278.37139084 1122.7404913 1280.43989837 1120.87109375 1282.62109375 C1116.63751812 1287.50281756 1112.08871454 1292.06178776 1107.51196289 1296.6184082 C1106.06475615 1298.06025221 1104.62297974 1299.50737116 1103.18164062 1300.95507812 C1098.50417757 1305.6355472 1093.76121946 1310.17537606 1088.73608398 1314.48217773 C1086.1935027 1316.70510389 1083.85973553 1319.08340337 1081.5 1321.5 C1077.86440864 1325.18488963 1074.15387033 1328.70735904 1070.21484375 1332.06640625 C1067.88663662 1334.09896803 1065.62840339 1336.19400071 1063.37011719 1338.3034668 C1057.96407993 1343.3526052 1052.45100761 1348.15527795 1046.6796875 1352.7890625 C1043.86746685 1355.1093495 1041.18202737 1357.53071134 1038.5 1360 C1033.6935928 1364.41377112 1028.72889917 1368.5636031 1023.65039062 1372.65869141 C1021.751612 1374.20187037 1019.86744261 1375.76190797 1017.984375 1377.32421875 C1009.45175001 1384.40090297 1000.82636822 1391.29374551 992 1398 C990.99066406 1398.78503906 989.98132812 1399.57007813 988.94140625 1400.37890625 C936.56777402 1441.11395354 878.08356253 1473.8726238 820.25 1506.125 C809.07772943 1512.35726478 798.01990406 1518.77271688 786.98828125 1525.25 C783.98634706 1527.00799545 780.97860635 1528.75560719 777.96875 1530.5 C758.35543823 1541.87369066 738.92851396 1553.51461356 720 1566 C719.18321777 1566.53592773 718.36643555 1567.07185547 717.52490234 1567.62402344 C695.52842368 1582.06861122 673.95444792 1597.25539615 653.99609375 1614.44140625 C651.10158847 1616.91324583 648.15598717 1619.30538067 645.1875 1621.6875 C641.16495465 1624.95800427 637.48692378 1628.40331426 633.875 1632.1171875 C631.47015789 1634.53204979 628.91480973 1636.73203739 626.33203125 1638.953125 C623.33729937 1641.58166688 620.42024398 1644.28926718 617.5 1647 C614.03729049 1650.21176007 610.5735083 1653.4110352 607 1656.5 C602.88795707 1660.05683038 598.9123038 1663.75583684 594.92456055 1667.45043945 C589.99335742 1672.01610385 585.00693471 1676.51752326 580 1681 C574.12197061 1686.27028483 568.27499615 1691.57232185 562.46142578 1696.91357422 C558.52207454 1700.5298002 554.55073735 1704.10882405 550.5703125 1707.6796875 C547.65571553 1710.31079783 544.76460776 1712.96652475 541.875 1715.625 C538.63786909 1718.6022264 535.38862144 1721.55952966 532.0625 1724.4375 C527.930891 1728.01937309 523.93070073 1731.73837958 519.92041016 1735.45458984 C515.82575629 1739.2463742 511.69166993 1742.99087784 507.53515625 1746.71484375 C504.63086734 1749.33273129 501.75229225 1751.97753203 498.875 1754.625 C495.63788971 1757.60224819 492.3886208 1760.55953021 489.0625 1763.4375 C484.930891 1767.01937309 480.93070073 1770.73837958 476.92041016 1774.45458984 C472.82575629 1778.2463742 468.69166993 1781.99087784 464.53515625 1785.71484375 C461.63086734 1788.33273129 458.75229225 1790.97753203 455.875 1793.625 C452.63788971 1796.60224819 449.3886208 1799.55953021 446.0625 1802.4375 C441.93244815 1806.01802312 437.9339593 1809.73579762 433.92480469 1813.45019531 C428.99354346 1818.01596642 424.00702032 1822.51744662 419 1827 C413.12197061 1832.27028483 407.27499615 1837.57232185 401.46142578 1842.91357422 C397.5288411 1846.52358867 393.56508306 1850.09725943 389.58984375 1853.66015625 C387.65525829 1855.40799439 385.73172112 1857.16486203 383.81640625 1858.93359375 C383.27564453 1859.43246094 382.73488281 1859.93132812 382.17773438 1860.4453125 C381.12399287 1861.41878107 380.07183202 1862.39396426 379.02148438 1863.37109375 C376.75551007 1865.46369821 374.57463993 1867.28357338 372 1869 C365.55549582 1868.69206064 359.63349417 1866.36126402 353.578125 1864.2734375 C352.46180695 1863.89386902 351.34548889 1863.51430054 350.19534302 1863.12322998 C346.54475746 1861.87998832 342.89735255 1860.62769153 339.25 1859.375 C337.34870256 1858.725119 335.44708005 1858.07619614 333.54541588 1857.42738914 C316.07463629 1851.46611288 298.63231386 1845.42303626 281.2121582 1839.31542969 C267.33216976 1834.450168 253.42184053 1829.67699062 239.49560547 1824.94580078 C238.73299911 1824.68617554 237.97039276 1824.42655029 237.18467712 1824.15905762 C235.76449916 1823.67562817 234.34391848 1823.19337957 232.92286682 1822.71252441 C228.22497011 1821.11248506 228.22497011 1821.11248506 226 1820 C227.5095196 1815.85585303 230.4218484 1813.99523437 233.9375 1811.625 C235.21464392 1810.73856515 236.49062361 1809.8504513 237.765625 1808.9609375 C238.45076172 1808.48495117 239.13589844 1808.00896484 239.84179688 1807.51855469 C243.66971792 1804.82515323 247.42561183 1802.03450835 251.1875 1799.25 C251.98849121 1798.65856201 252.78948242 1798.06712402 253.61474609 1797.45776367 C256.07719401 1795.63944982 258.53868586 1793.81984818 261 1792 C271.04056272 1784.57827284 281.10067195 1777.18827624 291.23291016 1769.89208984 C299.06877486 1764.24281917 306.83992854 1758.50687108 314.60888672 1752.76611328 C318.56991162 1749.84043897 322.53515717 1746.92049694 326.5 1744 C328.08335379 1742.8333611 329.66668712 1741.66669442 331.25 1740.5 C334.41666667 1738.16666667 337.58333333 1735.83333333 340.75 1733.5 C341.53383057 1732.92241943 342.31766113 1732.34483887 343.12524414 1731.74975586 C344.70768185 1730.58379194 346.29020131 1729.41793896 347.87280273 1728.25219727 C351.84551887 1725.32568557 355.81676994 1722.39722466 359.78515625 1719.46484375 C367.55600156 1713.7257631 375.34502589 1708.01589988 383.1875 1702.375 C389.10422119 1698.11724539 394.98081185 1693.81109743 400.8125 1689.4375 C401.46436279 1688.94878418 402.11622559 1688.46006836 402.7878418 1687.95654297 C405.51421517 1685.90378637 408.19512119 1683.83834358 410.82421875 1681.66015625 C413 1680 413 1680 415 1680 C415 1679.34 415 1678.68 415 1678 C396.84219429 1684.1938655 380.69542421 1694.25937723 364.42304993 1704.24179077 C363.51174568 1704.80079575 363.51174568 1704.80079575 362.58203125 1705.37109375 C361.96728439 1705.74819489 361.35253754 1706.12529602 360.71916199 1706.51382446 C353.5242385 1710.91798092 346.26150098 1715.2068729 339 1719.5 C328.96227444 1725.43922191 318.95818416 1731.42835286 309 1737.5 C298.36671155 1743.98326787 287.6763327 1750.36477342 276.95898438 1756.70800781 C266.4695047 1762.91822229 256.03368615 1769.21045931 245.62646484 1775.55737305 C234.96476087 1782.04813307 224.23117865 1788.41574098 213.48046875 1794.7578125 C212.82565521 1795.14490891 212.17084167 1795.53200531 211.4961853 1795.93083191 C209.72298223 1796.97900762 207.94868898 1798.02533846 206.17431641 1799.0715332 C203.9886071 1800.39939952 201.84294436 1801.79472956 199.73486328 1803.24267578 C197 1805 197 1805 194.640625 1805.06640625 C190.70471859 1803.47690559 187.29490653 1801.25615294 183.75 1798.9375 C182.9264502 1798.40801758 182.10290039 1797.87853516 181.25439453 1797.33300781 C179.45373897 1796.17480055 177.65516049 1795.0133593 175.85839844 1793.84912109 C171.91688407 1791.29932353 167.9594085 1788.77478175 164.00292969 1786.24829102 C160.82048373 1784.21517205 157.64036799 1782.17845598 154.4609375 1780.140625 C148.14247078 1776.09086309 141.82146367 1772.04508168 135.5 1768 C133.42708045 1766.67318158 131.35416379 1765.34635866 129.28125 1764.01953125 C125.01116137 1761.28659436 120.74022674 1758.55498554 116.46875 1755.82421875 C104.62361811 1748.25015526 92.79231105 1740.6560809 81 1733 C82.34155631 1730.01067836 83.81752877 1727.94032949 86.14526367 1725.64355469 C86.78320358 1725.00899353 87.42114349 1724.37443237 88.07841492 1723.72064209 C88.76796768 1723.04454895 89.45752045 1722.36845581 90.16796875 1721.671875 C90.88100662 1720.9640387 91.59404449 1720.25620239 92.32868958 1719.5269165 C94.61026194 1717.26314228 96.89838342 1715.00614329 99.1875 1712.75 C101.45793875 1710.50733494 103.72684929 1708.26317841 105.99275208 1706.01593018 C107.40129031 1704.61947599 108.81249126 1703.22570033 110.22685242 1701.83514404 C113.42773676 1698.66623871 116.51576799 1695.45890325 119.45629883 1692.04589844 C123.27492869 1687.61882313 127.37598548 1683.51561477 131.53125 1679.40625 C132.32599731 1678.61528931 133.12074463 1677.82432861 133.9395752 1677.00939941 C137.30535548 1673.65981427 140.67711048 1670.3162673 144.04833984 1666.97216797 C146.52390227 1664.51479061 148.99638083 1662.05433942 151.46875 1659.59375 C152.21999146 1658.85080688 152.97123291 1658.10786377 153.74523926 1657.34240723 C157.11667917 1653.98648559 160.39422561 1650.60441499 163.5 1647 C167.30246261 1642.58704158 171.39110957 1638.50065774 175.53125 1634.40625 C176.32599731 1633.61528931 177.12074463 1632.82432861 177.9395752 1632.00939941 C181.30535548 1628.65981427 184.67711048 1625.3162673 188.04833984 1621.97216797 C190.52390227 1619.51479061 192.99638083 1617.05433942 195.46875 1614.59375 C196.21999146 1613.85080688 196.97123291 1613.10786377 197.74523926 1612.34240723 C201.11667917 1608.98648559 204.39422561 1605.60441499 207.5 1602 C211.30246261 1597.58704158 215.39110957 1593.50065774 219.53125 1589.40625 C220.32599731 1588.61528931 221.12074463 1587.82432861 221.9395752 1587.00939941 C225.30535548 1583.65981427 228.67711048 1580.3162673 232.04833984 1576.97216797 C234.52390227 1574.51479061 236.99638083 1572.05433942 239.46875 1569.59375 C240.21999146 1568.85080688 240.97123291 1568.10786377 241.74523926 1567.34240723 C245.11667917 1563.98648559 248.39422561 1560.60441499 251.5 1557 C255.30246261 1552.58704158 259.39110957 1548.50065774 263.53125 1544.40625 C264.32599731 1543.61528931 265.12074463 1542.82432861 265.9395752 1542.00939941 C269.30535548 1538.65981427 272.67711048 1535.3162673 276.04833984 1531.97216797 C278.52390227 1529.51479061 280.99638083 1527.05433942 283.46875 1524.59375 C284.21999146 1523.85080688 284.97123291 1523.10786377 285.74523926 1522.34240723 C289.11667917 1518.98648559 292.39422561 1515.60441499 295.5 1512 C299.30246261 1507.58704158 303.39110957 1503.50065774 307.53125 1499.40625 C308.32599731 1498.61528931 309.12074463 1497.82432861 309.9395752 1497.00939941 C313.30535548 1493.65981427 316.67711048 1490.3162673 320.04833984 1486.97216797 C322.52390227 1484.51479061 324.99638083 1482.05433942 327.46875 1479.59375 C328.21999146 1478.85080688 328.97123291 1478.10786377 329.74523926 1477.34240723 C333.11304924 1473.99009881 336.38727694 1470.61211605 339.48901367 1467.01098633 C343.34864824 1462.53162165 347.50512446 1458.38690985 351.70703125 1454.23046875 C352.91693977 1453.02624016 352.91693977 1453.02624016 354.15129089 1451.79768372 C356.70259636 1449.25849633 359.25713502 1446.72260154 361.8125 1444.1875 C365.19687366 1440.82968781 368.57794319 1437.468599 371.95703125 1434.10546875 C372.73407913 1433.33671921 373.51112701 1432.56796967 374.3117218 1431.77592468 C375.02974472 1431.06120499 375.74776764 1430.34648529 376.48754883 1429.61010742 C377.1192952 1428.98359787 377.75104156 1428.35708832 378.40193176 1427.71159363 C381.05936642 1424.8653771 382.25669509 1422.58293108 382.86621094 1418.80859375 C383.0070813 1417.95952454 383.14795166 1417.11045532 383.29309082 1416.23565674 C383.4387146 1415.31226501 383.58433838 1414.38887329 383.734375 1413.4375 C383.8928894 1412.47076355 384.05140381 1411.5040271 384.21472168 1410.50799561 C384.55540746 1408.42508176 384.89276986 1406.34162218 385.22717285 1404.25769043 C385.75264527 1400.98351754 386.28664727 1397.71084378 386.82324219 1394.43847656 C387.54476771 1390.03685369 388.26362912 1385.6348102 388.98046875 1381.23242188 C390.36760926 1372.73212363 391.79740144 1364.23933366 393.25 1355.75 C393.37107117 1355.03986755 393.49214233 1354.32973511 393.61688232 1353.5980835 C395.20747952 1344.28649041 396.89301412 1335.00016288 398.88378906 1325.76464844 C400.1473947 1320.40652885 400.1473947 1320.40652885 400 1315 C398.41117045 1312.92709714 396.89635475 1311.20161585 395.0625 1309.375 C394.04049341 1308.31227078 393.02099995 1307.24711959 392.00390625 1306.1796875 C391.49359863 1305.64698242 390.98329102 1305.11427734 390.45751953 1304.56542969 C388.35192279 1302.30394119 386.42756252 1299.91382602 384.5 1297.5 C381.30068494 1293.52370843 377.9741715 1289.73329478 374.5 1286 C370.23081848 1281.41239887 366.24241483 1276.66557272 362.3125 1271.78125 C359.8002899 1268.75980812 357.17599173 1265.87558227 354.5 1263 C350.23081848 1258.41239887 346.24241483 1253.66557272 342.3125 1248.78125 C339.80028867 1245.75980664 337.17597543 1242.87559922 334.5 1240 C330.2104224 1235.38998361 326.19589103 1230.62216764 322.24609375 1225.71484375 C319.9116941 1222.89326505 317.48009402 1220.19409288 315 1217.5 C310.88621091 1213.0301488 307.02912703 1208.40955107 303.21484375 1203.68359375 C301.04367173 1201.05291443 298.79758643 1198.52057576 296.5 1196 C293.47717579 1192.68010514 290.57487839 1189.30235888 287.75 1185.8125 C284.14529915 1181.36147808 280.44629733 1177.00801395 276.6875 1172.6875 C275.86088867 1171.73725952 275.86088867 1171.73725952 275.01757812 1170.76782227 C273.89837515 1169.48168345 272.77907163 1168.19563212 271.65966797 1166.90966797 C264.77079514 1158.98310673 257.96536906 1151.00269617 251.34765625 1142.84765625 C248.59051877 1139.50330812 245.7683993 1136.21938963 242.9375 1132.9375 C238.93958192 1128.29770294 235.03696772 1123.60615896 231.23828125 1118.80078125 C228.30190936 1115.12647297 225.30713287 1111.50187367 222.3125 1107.875 C212.63588726 1096.13804655 202.99437422 1084.40751271 193.80444336 1072.28295898 C190.28093226 1067.64279367 186.67094579 1063.0864933 183 1058.5625 C174.03198759 1047.44577788 165.73626481 1035.83902927 157.9375 1023.875 C157.49656006 1023.20098145 157.05562012 1022.52696289 156.60131836 1021.83251953 C148.30870704 1008.91292961 148.30870704 1008.91292961 149 1002 C153.63546544 1000.20118475 157.51001565 999.74092369 162.47021484 999.7277832 C163.19385349 999.72450453 163.91749214 999.72122585 164.66305923 999.71784782 C167.05420574 999.7122531 169.44483246 999.72385681 171.8359375 999.73828125 C173.0864496 999.7418888 173.0864496 999.7418888 174.36222458 999.74556923 C193.2692306 999.81263618 212.09992851 1000.81375789 230.96360397 1002.01868439 C233.67834112 1002.19088349 236.39332485 1002.35853376 239.10842896 1002.52484131 C269.74987344 1004.40365037 300.33162494 1006.74727875 330.91015625 1009.46533203 C338.67708604 1010.15262391 346.4489238 1010.77338305 354.22195435 1011.38702393 C375.82858202 1013.09831622 397.41408718 1015.04743554 419 1017 C420.42289225 1017.12866219 421.8457845 1017.2573243 423.26867676 1017.38598633 C455.86905699 1020.33434356 488.46925012 1023.28618591 521.0625 1026.3125 C521.87317932 1026.38758789 522.68385864 1026.46267578 523.519104 1026.54003906 C531.62275845 1027.29145773 539.723135 1028.06841626 547.8203125 1028.88671875 C562.1610532 1030.33337242 576.51207821 1031.67529957 590.86157227 1033.03173828 C594.15688123 1033.34326669 597.45212719 1033.65544866 600.74731445 1033.96826172 C619.15901794 1035.71603321 637.57088082 1037.44380086 656 1039 C655.07517822 1038.86537354 654.15035645 1038.73074707 653.19750977 1038.59204102 C632.14914904 1035.51065099 611.20760275 1032.01937825 590.29681396 1028.11236572 C573.95232169 1025.06070521 557.5851023 1022.18917228 541.1875 1019.4375 C525.33302523 1016.77457713 509.49763961 1014.03987989 493.6875 1011.125 C474.89726235 1007.66078471 456.07095462 1004.42073893 437.23643112 1001.20841599 C418.38406268 997.99227213 399.55295558 994.68318656 380.75 991.1875 C364.69679382 988.20303863 348.62866145 985.38256786 332.51626587 982.73771667 C331.81093719 982.62188736 331.10560852 982.50605804 330.37890625 982.38671875 C329.68010345 982.27197708 328.98130066 982.15723541 328.26132202 982.03901672 C320.66491166 980.78729471 313.08118414 979.46553184 305.5 978.125 C304.81272827 978.00353607 304.12545654 977.88207214 303.4173584 977.75692749 C294.85258285 976.24063781 286.29388185 974.69218768 277.73828125 973.125 C274.09638524 972.45816347 270.45446402 971.791465 266.8125 971.125 C265.89283447 970.95663635 264.97316895 970.78827271 264.02563477 970.61480713 C248.54920778 967.78563437 233.04943641 965.11415768 217.53530884 962.50054932 C202.43922594 959.95515038 187.37222015 957.27696455 172.31600952 954.50604248 C155.32518374 951.38198218 138.30275275 948.46173014 121.26367188 945.61328125 C120.30921677 945.45290375 119.35476166 945.29252625 118.37138367 945.12728882 C116.60205076 944.83012742 114.83239278 944.53489143 113.06233215 944.24209595 C110.70473689 943.84570359 108.35265739 943.42459147 106 943 C104.74759018 942.79901955 104.74759018 942.79901955 103.46987915 942.59397888 C102.25586929 942.37355675 102.25586929 942.37355675 101.01733398 942.14868164 C100.29070053 942.02497696 99.56406708 941.90127228 98.81541443 941.77381897 C97 941 97 941 95.84034729 939.05989075 C95.02956794 936.72744247 94.50286714 934.41686986 94 932 C93.55914422 930.50024504 93.10601856 929.00404164 92.640625 927.51171875 C92.17362414 925.90464701 91.71026189 924.29651472 91.25 922.6875 C90.86811523 921.35428711 90.86811523 921.35428711 90.47851562 919.99414062 C87.98698353 911.16820489 85.79709102 902.27235604 83.60644531 893.36791992 C81.87380529 886.36731084 80.03133391 879.41957061 78 872.5 C75.2662581 863.18773481 72.92545686 853.79542789 70.60766602 844.37207031 C68.64411752 836.43987606 66.49966807 828.58506899 64.20361328 820.74365234 C61.40491266 811.10617625 59.05536553 801.35922509 56.65087891 791.61767578 C54.7146419 783.83060407 52.59672916 776.09501924 50.41015625 768.375 C46.57449052 754.82110554 43.00909939 741.22877958 39.63476562 727.55322266 C37.70413366 719.78762686 35.59067749 712.07365292 33.41015625 704.375 C29.57449052 690.82110554 26.00909939 677.22877958 22.63476562 663.55322266 C20.70413366 655.78762686 18.59067749 648.07365292 16.41015625 640.375 C12.57449052 626.82110554 9.00909939 613.22877958 5.63476562 599.55322266 C2.84595575 588.33577126 -0.32090378 577.21786127 -3.45092773 566.09204102 C-5.06103676 560.36877335 -6.6484676 554.6402753 -8.20727539 548.90283203 C-9.09628251 545.64742868 -9.99845562 542.3958337 -10.90234375 539.14453125 C-14.42366049 526.46624957 -17.93655285 513.79795356 -21 501 C-17.96821387 501.64311907 -15.50193016 502.65561242 -12.76953125 504.109375 C-11.96580078 504.53476562 -11.16207031 504.96015625 -10.33398438 505.3984375 C-9.50189453 505.84445312 -8.66980469 506.29046875 -7.8125 506.75 C-6.99974609 507.18054688 -6.18699219 507.61109375 -5.34960938 508.0546875 C0.13726692 510.97054539 5.57854358 513.96444088 11 517 C11.27150879 516.41460449 11.54301758 515.82920898 11.82275391 515.22607422 C12.98602808 513.02641973 14.24983638 511.29421523 15.8359375 509.3828125 C16.39982178 508.70017334 16.96370605 508.01753418 17.54467773 507.31420898 C18.14868408 506.59177002 18.75269043 505.86933105 19.375 505.125 C19.99769775 504.37484619 20.62039551 503.62469238 21.26196289 502.85180664 C29.36662904 493.11405696 37.61973491 483.50156817 46 474 C43.0774094 470.87013348 40.0614206 468.58546244 36.4375 466.3125 C35.01244141 465.40951172 35.01244141 465.40951172 33.55859375 464.48828125 C31.01243224 462.89100282 31.01243224 462.89100282 28 462 C28 461.34 28 460.68 28 460 C27.01 460 26.02 460 25 460 C25 459.34 25 458.68 25 458 C24.01 458 23.02 458 22 458 C22 457.34 22 456.68 22 456 C21.32066406 455.74992187 20.64132813 455.49984375 19.94140625 455.2421875 C16.46282082 453.77314345 13.21180175 451.99305339 9.9375 450.125 C9.32583984 449.78597656 8.71417969 449.44695312 8.08398438 449.09765625 C4.53467155 447.07934431 1.79906641 444.95053104 -1 442 C-4.6904239 439.31398013 -8.45876764 437.22016232 -12.6875 435.5 C-16 434 -16 434 -18.1875 431.75 C-21.04538875 428.95561989 -23.71738057 427.30435396 -27.17578125 425.328125 C-28.26415283 424.70325195 -29.35252441 424.07837891 -30.47387695 423.43457031 C-31.30749756 422.96116211 -32.14111816 422.48775391 -33 422 C-32.91276515 420.99094416 -32.8255303 419.98188831 -32.73565197 418.94225502 C-29.26637749 378.64963378 -26.24743295 338.32285881 -23.19839694 297.99680617 C-22.43286926 287.87382509 -21.66477614 277.75103909 -20.89645299 267.62826987 C-19.52656516 249.57957934 -18.15784341 231.53080063 -16.7902832 213.48193359 C-16.70907031 212.41010529 -16.62785741 211.33827699 -16.54418352 210.23396905 C-15.63423427 198.22432104 -14.72458172 186.21465058 -13.81524658 174.20495605 C-13.48303571 169.81746393 -13.15082199 165.42997202 -12.81860352 161.04248047 C-12.73658394 159.95926924 -12.65456436 158.87605802 -12.57005934 157.76002221 C-11.20342642 139.71202799 -9.83470447 121.66419288 -8.4643299 103.61648238 C-7.62218126 92.52427374 -6.7818343 81.43193149 -5.94383015 70.33940895 C-5.37191251 62.77076663 -4.79806948 55.20227189 -4.22269443 47.63389163 C-3.89103951 43.27049379 -3.56028145 38.90703268 -3.231884 34.54338837 C-2.93145597 30.55159855 -2.62854493 26.56000526 -2.32364818 22.56855436 C-2.2137841 21.12447253 -2.10483951 19.6803204 -1.99690316 18.23609321 C-1.85015661 16.27434025 -1.69974868 14.31286221 -1.54916096 12.35140038 C-1.46665161 11.26180153 -1.38414227 10.17220269 -1.29913265 9.0495857 C-1.00003697 6.00037693 -0.53940732 3.01517178 0 0 Z " fill="#FFFEFE" transform="translate(221,20)"/>
<path d="M0 0 C0.94013947 -0.00073517 1.88027893 -0.00147034 2.84890747 -0.00222778 C30.09832341 0.05331455 55.50140026 4.60454449 81.80371094 11.64160156 C98.93181401 17.2291387 98.93181401 17.2291387 115.6875 14.8125 C117.96405173 12.43153811 117.96405173 12.43153811 119.6875 9.1875 C120.38875 8.28 121.09 7.3725 121.8125 6.4375 C125.4453125 6.265625 125.4453125 6.265625 128.8125 6.4375 C129.90124221 33.050825 130.91437433 59.65817345 131.48583984 86.28808594 C131.76817852 99.345972 132.21246071 112.38983716 132.8125 125.4375 C129.5125 125.4375 126.2125 125.4375 122.8125 125.4375 C121.42443992 122.98331429 120.03659374 120.52900838 118.64916992 118.07446289 C117.45387029 115.96101786 116.25739423 113.84823781 115.05981445 111.73608398 C109.87137641 102.57669632 109.87137641 102.57669632 107.5078125 98.19140625 C95.58679892 76.1747843 81.04652425 55.58683662 63.8125 37.4375 C63.15894531 36.70789062 62.50539063 35.97828125 61.83203125 35.2265625 C53.16040847 25.87082449 41.71382216 19.6953006 29.8125 15.4375 C28.8534375 15.08558594 27.894375 14.73367188 26.90625 14.37109375 C10.23990717 9.34173019 -8.12758586 11.55427421 -23.55859375 19.08203125 C-44.36049295 30.58670209 -56.66414275 52.10514539 -63.1875 74.4375 C-63.4256543 75.23881348 -63.66380859 76.04012695 -63.90917969 76.86572266 C-69.02032549 94.46970074 -71.34511527 112.25051407 -73.1875 130.4375 C-73.31133592 131.62128707 -73.31133592 131.62128707 -73.43767357 132.82898903 C-74.08492592 139.37752701 -74.34596752 145.84992176 -74.36450195 152.42797852 C-74.37107315 153.46737076 -74.37764435 154.506763 -74.38441467 155.57765198 C-74.40398575 158.99057114 -74.41578457 162.40344626 -74.42578125 165.81640625 C-74.42985678 166.99952833 -74.4339323 168.18265041 -74.43813133 169.40162468 C-74.45894049 175.68482152 -74.47325493 181.96799696 -74.48266602 188.2512207 C-74.49145613 193.37601873 -74.51217085 198.50053943 -74.54418945 203.62524414 C-74.71653591 231.82312214 -74.76989492 259.54948028 -70.1875 287.4375 C-69.98829956 288.67170181 -69.78909912 289.90590363 -69.5838623 291.17750549 C-65.50050293 316.12220773 -58.30591191 341.44785379 -42.1875 361.4375 C-41.424375 362.489375 -40.66125 363.54125 -39.875 364.625 C-31.1222271 373.78487861 -18.66673233 381.56851267 -5.84521484 382.74389648 C-2.08394578 382.81449687 1.67558176 382.85838701 5.4375 382.875 C6.72785156 382.90787109 8.01820313 382.94074219 9.34765625 382.97460938 C19.5244287 383.03097619 28.40324041 381.1908638 36.875 375.3125 C47.10915406 360.12633591 45.14509056 339.64310142 45.2265625 322.23046875 C45.24529716 319.69313442 45.26487225 317.15580618 45.2852478 314.6184845 C45.33112917 308.65489996 45.36862338 302.69130121 45.40192068 296.72763664 C45.44035604 289.92934231 45.48970883 283.13114031 45.53990483 276.33292425 C45.64277807 262.3678448 45.73074071 248.4027182 45.8125 234.4375 C34.2625 234.4375 22.7125 234.4375 10.8125 234.4375 C10.8125 230.4775 10.8125 226.5175 10.8125 222.4375 C62.6225 222.4375 114.4325 222.4375 167.8125 222.4375 C167.8125 226.3975 167.8125 230.3575 167.8125 234.4375 C160.8825 234.4375 153.9525 234.4375 146.8125 234.4375 C146.8125 285.5875 146.8125 336.7375 146.8125 389.4375 C138.8125 389.4375 138.8125 389.4375 136.59765625 387.828125 C136.02917969 387.12171875 135.46070313 386.4153125 134.875 385.6875 C129.52008913 379.71999578 122.81229278 376.88246873 114.86352539 376.17504883 C104.43244663 375.89907903 95.0647116 377.85447119 84.9881897 380.42623901 C82.19536411 381.13894258 79.39792109 381.83001669 76.59838867 382.51586914 C72.94152362 383.41355473 69.28661529 384.31843911 65.63378906 385.23242188 C56.72629696 387.4611327 47.82137241 389.65418632 38.8125 391.4375 C38.01328125 391.59831055 37.2140625 391.75912109 36.390625 391.92480469 C9.50053654 397.0512563 -22.40264683 397.23515492 -49.1875 391.4375 C-50.60820801 391.13948486 -50.60820801 391.13948486 -52.05761719 390.83544922 C-94.61287191 381.67529684 -133.16042262 360.65420275 -157.51953125 323.66796875 C-165.64869189 310.96560558 -171.43201425 297.71920896 -176.1875 283.4375 C-176.42452637 282.7475293 -176.66155273 282.05755859 -176.90576172 281.34667969 C-196.70611193 223.14693509 -191.54033676 148.20102889 -165.14599609 93.1171875 C-159.25718454 81.22982135 -151.79440612 70.52133084 -143.1875 60.4375 C-142.50300781 59.63054687 -141.81851562 58.82359375 -141.11328125 57.9921875 C-121.52135439 35.55116535 -96.95430356 20.59504385 -69.1875 10.4375 C-68.08148437 10.02628906 -66.97546875 9.61507813 -65.8359375 9.19140625 C-56.22451548 5.93265234 -46.12795029 4.48143689 -36.12817383 2.91137695 C-34.17583228 2.5967655 -32.22738368 2.25690804 -30.28393555 1.89135742 C-20.20903814 0.09741831 -10.20300814 -0.0034803 0 0 Z " fill="#FFFEFE" transform="translate(1331.1875,1442.5625)"/>
<path d="M0 0 C3.6315347 1.34267056 6.75218059 2.9723732 10.0078125 5.0625 C10.98113525 5.68560059 11.95445801 6.30870117 12.95727539 6.95068359 C14.00262451 7.62695801 15.04797363 8.30323242 16.125 9 C17.21868896 9.70334473 18.31237793 10.40668945 19.43920898 11.13134766 C28.29356775 16.83845629 37.05681323 22.67991437 45.80740356 28.54440308 C52.75898701 33.20218815 59.73876262 37.78785033 66.86645508 42.17211914 C73.23490263 46.10515672 79.49063154 50.20884625 85.75 54.3125 C86.3117392 54.68073883 86.87347839 55.04897766 87.45223999 55.42837524 C90.2506848 57.26315649 93.04874251 59.09852671 95.84667969 60.93408203 C100.3489538 63.88377571 104.860682 66.81878283 109.375 69.75 C110.17429932 70.26908936 110.97359863 70.78817871 111.79711914 71.32299805 C113.39251876 72.35897814 114.9879773 73.39486751 116.58349609 74.43066406 C119.08366301 76.05433278 121.58296864 77.67931967 124.08203125 79.3046875 C131.8827083 84.37803217 139.68580821 89.44749092 147.5 94.5 C161.82941873 103.76594264 176.12715875 113.08044816 190.41894531 122.40429688 C203.45494881 130.90775523 216.50432745 139.39040544 229.57446289 147.84130859 C237.54245911 152.9947205 245.49678404 158.16914196 253.45166016 163.34277344 C257.63395863 166.06258969 261.81700366 168.78125722 266 171.5 C271.03553696 174.77285242 276.07090121 178.04596898 281.10546875 181.3203125 C288.83556887 186.3472124 296.56798201 191.37033604 304.3125 196.375 C312.05154336 201.37657981 319.76852282 206.41173009 327.48486328 211.44824219 C333.88920032 215.62706413 340.30261909 219.79140139 346.7253418 223.94189453 C354.64418647 229.06002253 362.54744609 234.20209116 370.45166016 239.34277344 C374.63395863 242.06258969 378.81701304 244.78124278 383 247.5 C384.66667039 248.58332761 386.33333705 249.66666095 388 250.75 C389.2375 251.554375 389.2375 251.554375 390.5 252.375 C398 257.25 398 257.25 400.50073242 258.87548828 C402.1649428 259.9572169 403.82916803 261.03892268 405.4934082 262.12060547 C409.69777895 264.85330245 413.90187914 267.58641405 418.10546875 270.3203125 C425.89850816 275.38817862 433.69369302 280.45258908 441.5 285.5 C454.91694749 294.17590432 468.30684632 302.89324732 481.6875 311.625 C489.02409965 316.41240611 496.36830213 321.18758782 503.72607422 325.94238281 C511.64469871 331.06031088 519.54769214 336.20225118 527.45166016 341.34277344 C531.63395863 344.06258969 535.81701304 346.78124278 540 349.5 C541.66667039 350.58332761 543.33333705 351.66666095 545 352.75 C545.825 353.28625 546.65 353.8225 547.5 354.375 C555 359.25 555 359.25 557.4987793 360.87426758 C559.16944064 361.96015669 560.84017661 363.045931 562.51098633 364.1315918 C566.61714676 366.79989673 570.72209232 369.47002811 574.82421875 372.14453125 C587.10503956 380.14719219 599.44170784 388.06052542 611.79443359 395.95166016 C617.03152527 399.29813382 622.26560352 402.64931291 627.5 406 C629.57551796 407.3281295 631.6510388 408.65625449 633.7265625 409.984375 C637.97235032 412.70157296 642.21701132 415.42052037 646.4609375 418.140625 C656.94869188 424.86079481 667.44218624 431.57022919 677.98974609 438.19628906 C682.03399409 440.74038503 686.03795827 443.32952148 690 446 C689.01 446.495 689.01 446.495 688 447 C685.69116211 445.95874023 685.69116211 445.95874023 682.77734375 444.30859375 C681.69469238 443.70088135 680.61204102 443.09316895 679.49658203 442.46704102 C678.31016825 441.79062047 677.12380906 441.11410418 675.9375 440.4375 C674.70991618 439.7452253 673.48188249 439.05374777 672.25341797 438.36303711 C669.72471787 436.93979419 667.19848893 435.5123118 664.67431641 434.08105469 C659.33576084 431.05486946 653.97994737 428.05955222 648.625 425.0625 C647.61074951 424.49378174 646.59649902 423.92506348 645.55151367 423.33911133 C633.96280051 416.84555304 622.32579425 410.43986071 610.68945312 404.03222656 C607.03679235 402.02063376 603.38537875 400.00678592 599.734375 397.9921875 C599.13696503 397.66254501 598.53955505 397.33290253 597.92404175 396.99327087 C595.51418467 395.6634738 593.10438301 394.33357635 590.69464111 393.00357056 C584.60097735 389.64032383 578.50685768 386.27793373 572.40858459 382.92304993 C569.31360825 381.22034687 566.21914838 379.51670712 563.125 377.8125 C562.51886871 377.47866302 561.91273743 377.14482605 561.28823853 376.8008728 C553.22457763 372.35724564 545.19217307 367.86172464 537.1875 363.3125 C528.3920044 358.31423641 519.52528671 353.46053578 510.62109375 348.65893555 C502.55711174 344.30956324 494.53972462 339.88274153 486.54003906 335.41650391 C481.3847319 332.5415431 476.222924 329.67826254 471.0625 326.8125 C468.72783338 325.51568112 466.39318872 324.21882284 464.05859375 322.921875 C463.47310257 322.59662338 462.88761139 322.27137177 462.28437805 321.93626404 C458.28402309 319.71382166 454.2844426 317.48998998 450.28515625 315.265625 C438.09140383 308.48495771 425.88670587 301.72474487 413.6675415 294.99002075 C403.82120396 289.5627363 393.98953627 284.10951959 384.1640625 278.64453125 C375.95213267 274.07915767 367.72862827 269.53517099 359.5 265 C349.04260399 259.23645383 338.59907191 253.44854703 328.1640625 247.64453125 C319.95213267 243.07915767 311.72862827 238.53517099 303.5 234 C293.04260399 228.23645383 282.59907191 222.44854703 272.1640625 216.64453125 C263.95213267 212.07915767 255.72862827 207.53517099 247.5 203 C238.15698463 197.85063964 228.82305142 192.68546128 219.5 187.5 C205.97186441 179.97656894 192.4189118 172.49860928 178.86236572 165.02655029 C147.6889217 147.84350848 147.6889217 147.84350848 132.45947266 139.36816406 C127.32848137 136.51387826 122.19524886 133.66362359 117.0625 130.8125 C110.13593572 126.96494783 103.20962468 123.11694839 96.28515625 119.265625 C84.09140383 112.48495771 71.88670587 105.72474487 59.6675415 98.99002075 C49.82120396 93.5627363 39.98953627 88.10951959 30.1640625 82.64453125 C22.55939547 78.41676182 14.94534944 74.20638838 7.32531738 70.00640869 C5.51568288 69.00864693 3.7064922 68.01008548 1.89746094 67.01123047 C0.6972737 66.34861819 -0.50292162 65.68602054 -1.703125 65.0234375 C-2.59430023 64.53144363 -2.59430023 64.53144363 -3.503479 64.0295105 C-7.28178489 61.94476327 -11.06413116 59.86752562 -14.84887695 57.79449463 C-17.37931338 56.40725794 -19.90730137 55.01560134 -22.43481445 53.62304688 C-23.63732947 52.96186579 -24.84093216 52.30265876 -26.0456543 51.64550781 C-27.70507504 50.74007314 -29.36046144 49.82725619 -31.015625 48.9140625 C-31.95696289 48.3979541 -32.89830078 47.8818457 -33.86816406 47.35009766 C-36 46 -36 46 -37 44 C-29.33219935 34.02724926 -21.31109523 24.44140419 -13 15 C-11.6871651 13.5002931 -10.37458983 12.0003588 -9.0625 10.5 C-8.546875 9.9121875 -8.03125 9.324375 -7.5 8.71875 C-4.97915852 5.83028581 -2.48997155 2.91508865 0 0 Z " fill="#FF4EF9" transform="translate(268,493)"/>
<path d="M0 0 C1.49950195 0.20786133 1.49950195 0.20786133 3.02929688 0.41992188 C5.45735914 0.75683004 7.88507335 1.09604777 10.3125 1.4375 C10.3125 1.7675 10.3125 2.0975 10.3125 2.4375 C1.56802008 2.67625713 -7.05793992 1.76796935 -15.75 0.9375 C-17.29879268 0.79258941 -18.84762061 0.64805501 -20.39648438 0.50390625 C-24.16057679 0.15277506 -27.92415508 -0.20344958 -31.6875 -0.5625 C-31.6875 -0.8925 -31.6875 -1.2225 -31.6875 -1.5625 C-20.94048237 -3.14812555 -10.68842523 -1.50429688 0 0 Z " fill="#FF86FB" transform="translate(873.6875,1057.5625)"/>
<path d="M0 0 C3.82990706 0.64743667 6.5283898 2.45311237 9.75 4.5625 C11.22726562 5.52349609 11.22726562 5.52349609 12.734375 6.50390625 C13.85585938 7.24447266 13.85585938 7.24447266 15 8 C14.01 8.495 14.01 8.495 13 9 C10.21484375 7.63671875 10.21484375 7.63671875 6.9375 5.6875 C5.85339844 5.05199219 4.76929688 4.41648437 3.65234375 3.76171875 C1 2 1 2 0 0 Z " fill="#FF6FFA" transform="translate(943,931)"/>
<path d="M0 0 C3.37503669 1.1858237 5.64722731 2.27573689 8 5 C7.01 5.495 7.01 5.495 6 6 C3.5249829 4.88568235 1.32116581 3.41849022 -1 2 C-0.67 1.34 -0.34 0.68 0 0 Z " fill="#FF5FF9" transform="translate(936,926)"/>
</svg>
