<?xml version="1.0" standalone="no"?>
<!DOCTYPE svg PUBLIC "-//W3C//DTD SVG 20010904//EN"
 "http://www.w3.org/TR/2001/REC-SVG-20010904/DTD/svg10.dtd">
<svg version="1.0" xmlns="http://www.w3.org/2000/svg"
 width="300.000000pt" height="300.000000pt" viewBox="0 0 300.000000 300.000000"
 preserveAspectRatio="xMidYMid meet">
<metadata>
Created by potrace 1.10, written by Peter Selinger 2001-2011
</metadata>
<g transform="translate(0.000000,300.000000) scale(0.100000,-0.100000)"
fill="#000000" stroke="none">
<path d="M2430 2289 c-89 -80 -317 -276 -400 -345 -98 -82 -150 -130 -150
-138 0 -20 47 1 102 44 150 119 180 132 113 48 -19 -24 -47 -60 -62 -81 -62
-84 -163 -214 -197 -252 l-35 -40 -1 166 c0 148 -2 168 -18 182 -10 10 -28 17
-40 17 -29 0 -91 -57 -146 -134 -24 -33 -56 -72 -71 -86 -15 -14 -33 -37 -40
-51 -8 -14 -43 -61 -79 -104 -90 -108 -90 -108 27 -332 105 -202 110 -213 96
-213 -5 0 -35 9 -67 19 -135 46 -325 101 -345 101 -37 0 -74 -32 -153 -131
-42 -52 -80 -95 -85 -97 -12 -5 -11 43 2 149 8 70 8 93 -4 120 -17 42 -37 53
-156 87 -52 15 -96 32 -98 37 -1 6 61 52 140 104 78 52 149 102 158 111 29 30
40 60 49 138 23 191 40 313 45 322 10 16 24 2 49 -48 58 -115 99 -183 116
-192 38 -20 75 -11 141 36 35 25 89 58 119 74 30 15 66 38 80 50 14 12 36 28
50 34 14 6 71 43 128 81 139 94 162 108 169 102 3 -4 -2 -47 -11 -96 -20 -109
-20 -141 -3 -141 15 0 32 50 42 125 7 48 30 161 41 198 3 9 1 17 -5 17 -6 0
-91 -53 -188 -118 -98 -65 -216 -142 -263 -171 -47 -30 -124 -80 -173 -112
-48 -33 -91 -59 -95 -59 -5 0 -55 92 -112 205 -57 113 -106 202 -109 199 -3
-3 -9 -42 -13 -87 -4 -45 -15 -136 -23 -202 -9 -66 -20 -149 -24 -185 -12 -93
-23 -140 -31 -140 -4 0 -63 -37 -131 -82 -68 -46 -155 -101 -194 -123 -73 -42
-81 -55 -42 -67 12 -3 58 -17 102 -31 44 -13 109 -33 144 -43 35 -10 66 -24
68 -31 8 -20 -32 -284 -64 -431 -9 -37 13 -25 53 31 86 120 257 327 270 327
15 0 61 -14 344 -106 91 -30 169 -54 173 -54 14 0 6 22 -52 127 -91 168 -196
367 -199 378 -1 6 28 47 65 92 119 142 178 216 221 273 112 150 116 148 103
-46 -22 -309 -23 -344 -12 -344 6 0 17 13 25 29 9 16 71 100 138 187 68 88
137 178 153 201 44 61 327 420 375 475 54 62 48 79 -10 27z"/>
</g>
</svg>
